<?xml version="1.0" encoding="UTF-8" standalone="no"?>
<!DOCTYPE svg PUBLIC "-//W3C//DTD SVG 1.1//EN" "http://www.w3.org/Graphics/SVG/1.1/DTD/svg11.dtd">
<svg width="100%" height="100%" viewBox="0 0 800 226" version="1.1" xmlns="http://www.w3.org/2000/svg" xmlns:xlink="http://www.w3.org/1999/xlink" xml:space="preserve" xmlns:serif="http://www.serif.com/" style="fill-rule:evenodd;clip-rule:evenodd;stroke-linejoin:round;stroke-miterlimit:2;">
    <path id="graphity" d="M782.484,62.442L773.849,62.442L737.15,155.256L699.47,62.442L690.835,62.442L733.029,164.891L728.319,176.493C723.413,188.488 715.562,194.977 706.339,194.977C700.647,194.977 695.349,193.404 690.835,190.258L687.302,197.337C692.601,201.27 699.274,203.236 706.731,203.236C718.703,203.236 728.711,194.977 734.991,179.639L782.484,62.442ZM681.807,151.126C676.508,154.863 670.424,157.026 664.537,157.026C653.939,157.222 648.248,150.143 648.248,135.592L648.248,72.077L682.985,72.077L682.985,64.998L648.248,64.998L648.248,39.631L640.398,39.631L640.398,64.998L625.483,64.998L625.483,72.077L640.398,72.077L640.398,136.575C640.398,155.846 649.033,165.285 663.556,165.088C671.21,165.088 678.471,162.335 684.947,157.812L681.807,151.126ZM591.924,25.866C588.195,25.866 585.055,29.013 585.055,32.946C585.055,37.075 588.195,40.221 591.924,40.221C595.652,40.221 598.792,37.075 598.792,32.946C598.792,29.013 595.652,25.866 591.924,25.866ZM595.849,164.891L595.849,62.442L587.802,62.442L587.802,164.891L595.849,164.891ZM510.675,62.245C490.069,62.638 475.546,71.88 468.677,89.185L468.677,18.984L460.435,18.984L460.435,164.891L468.677,164.891L468.677,114.748C468.677,88.005 483.396,71.094 508.713,70.504C529.712,70.504 542.076,82.892 542.076,103.933L542.076,164.891L550.318,164.891L550.318,102.36C550.318,77.386 535.599,62.245 510.675,62.245ZM380.364,62.245C360.346,62.245 344.646,72.667 336.992,89.381L336.992,62.442L328.75,62.442L328.75,203.04L336.992,203.04L336.992,138.148C344.646,154.666 360.346,165.088 380.364,165.088C409.213,165.088 429.623,143.654 429.623,113.765C429.623,83.679 409.017,62.245 380.364,62.245ZM379.186,157.419C354.655,157.419 336.992,139.131 336.992,113.765C336.992,88.398 354.655,69.914 379.186,69.914C403.914,69.914 421.577,88.398 421.577,113.765C421.577,139.131 403.914,157.419 379.186,157.419ZM282.238,164.891L290.284,164.891L289.892,96.854C289.695,75.616 276.546,62.245 252.407,62.245C236.904,62.245 225.128,67.948 212.961,76.796L216.886,83.089C227.68,74.83 238.474,69.717 251.23,69.717C271.64,69.717 281.649,80.139 281.845,97.444L281.845,107.472L245.539,107.472C221.988,107.472 207.466,117.894 207.466,135.002C207.466,152.306 221.007,165.088 241.221,165.088C258.884,165.088 273.406,158.795 282.042,144.637L282.238,164.891ZM242.399,157.616C225.717,157.616 215.316,148.374 215.316,134.805C215.316,121.63 226.306,114.748 246.324,114.748L282.042,114.748L282.042,131.462C275.761,149.357 261.435,157.616 242.399,157.616ZM161.543,62.442L153.3,62.442L153.3,164.891L161.543,164.891L161.543,109.439C163.309,85.645 177.047,70.701 199.616,70.701L199.616,62.245C181.364,62.638 168.019,71.684 161.543,88.201L161.543,62.442ZM115.227,62.442L107.377,62.442L107.377,88.791C100.116,72.47 85.004,62.245 65.379,62.245C38.1,62.245 18.279,82.892 18.279,111.602C18.279,140.115 38.1,160.762 65.575,160.762C85.004,160.762 100.312,150.733 107.377,134.412L107.377,153.683C107.377,179.246 90.892,195.567 65.575,195.371C50.857,194.977 39.278,190.258 28.68,180.229L24.362,186.325C36.334,197.14 49.483,202.646 65.772,203.04C95.798,203.236 115.227,183.965 115.227,153.683L115.227,62.442ZM66.557,153.683C42.81,153.683 25.932,135.985 25.932,111.798C25.932,87.415 43.006,69.717 66.557,69.717C90.107,69.717 107.377,87.415 107.377,111.798C107.377,135.985 90.107,153.683 66.557,153.683Z" style="fill:url(#_Linear1);fill-rule:nonzero;"/>
    <defs>
        <linearGradient id="_Linear1" x1="0" y1="0" x2="1" y2="0" gradientUnits="userSpaceOnUse" gradientTransform="matrix(262.351,0,0,262.351,439.043,111.11)"><stop offset="0" style="stop-color:rgb(219,0,141);stop-opacity:1"/><stop offset="1" style="stop-color:rgb(0,111,197);stop-opacity:1"/></linearGradient>
    </defs>
</svg>
